<svg width="36" height="36" viewBox="0 0 36 36" fill="none" xmlns="http://www.w3.org/2000/svg">
<path d="M7.70703 16.8379H29.582C29.8721 16.8379 30.1503 16.9531 30.3554 17.1582C30.5605 17.3634 30.6758 17.6416 30.6758 17.9316C30.6758 18.2217 30.5605 18.4999 30.3554 18.705C30.1503 18.9102 29.8721 19.0254 29.582 19.0254H7.70703C7.41695 19.0254 7.13875 18.9102 6.93363 18.705C6.72852 18.4999 6.61328 18.2217 6.61328 17.9316C6.61328 17.6416 6.72852 17.3634 6.93363 17.1582C7.13875 16.9531 7.41695 16.8379 7.70703 16.8379Z" fill="#222222"/>
<path d="M8.15985 17.9316L17.2314 27.0009C17.4368 27.2063 17.5522 27.4849 17.5522 27.7753C17.5522 28.0658 17.4368 28.3443 17.2314 28.5497C17.026 28.7551 16.7475 28.8704 16.457 28.8704C16.1666 28.8704 15.888 28.7551 15.6827 28.5497L5.83891 18.7059C5.73705 18.6043 5.65624 18.4836 5.6011 18.3508C5.54596 18.2179 5.51758 18.0754 5.51758 17.9316C5.51758 17.7877 5.54596 17.6452 5.6011 17.5124C5.65624 17.3795 5.73705 17.2588 5.83891 17.1572L15.6827 7.31343C15.888 7.10806 16.1666 6.99268 16.457 6.99268C16.7475 6.99268 17.026 7.10806 17.2314 7.31343C17.4368 7.51881 17.5522 7.79736 17.5522 8.08781C17.5522 8.37825 17.4368 8.65681 17.2314 8.86218L8.15985 17.9316Z" fill="#222222"/>
</svg>
