<svg width="18" height="19" viewBox="0 0 18 19" fill="none" xmlns="http://www.w3.org/2000/svg">
<path d="M8.99958 15.2784L15.5448 8.90942C15.5976 8.85698 15.6602 8.81553 15.7291 8.78745C15.7979 8.75938 15.8717 8.74524 15.9461 8.74586C16.0205 8.74647 16.094 8.76184 16.1624 8.79105C16.2308 8.82027 16.2927 8.86276 16.3446 8.91606C16.3964 8.96937 16.4372 9.03243 16.4645 9.1016C16.4919 9.17077 16.5052 9.24468 16.5038 9.31904C16.5024 9.39341 16.4862 9.46675 16.4563 9.53483C16.4263 9.60291 16.3832 9.66438 16.3293 9.71567L9.39183 16.4657C9.28682 16.5678 9.14609 16.625 8.99958 16.625C8.85307 16.625 8.71234 16.5678 8.60733 16.4657L1.66983 9.71567C1.61597 9.66438 1.57282 9.60291 1.54287 9.53483C1.51292 9.46675 1.49677 9.39341 1.49536 9.31904C1.49394 9.24468 1.50729 9.17077 1.53462 9.1016C1.56196 9.03243 1.60274 8.96937 1.65461 8.91606C1.70647 8.86276 1.7684 8.82027 1.8368 8.79105C1.9052 8.76184 1.97871 8.74647 2.05308 8.74586C2.12746 8.74524 2.20121 8.75938 2.27009 8.78745C2.33896 8.81553 2.40158 8.85698 2.45433 8.90942L8.99958 15.2784Z" fill="#222222"/>
</svg>
