<svg width="18" height="19" viewBox="0 0 18 19" fill="none" xmlns="http://www.w3.org/2000/svg">
<path d="M14.7784 9.49993L8.40942 2.95468C8.35698 2.90193 8.31553 2.83931 8.28745 2.77044C8.25938 2.70156 8.24524 2.62781 8.24586 2.55343C8.24647 2.47906 8.26184 2.40555 8.29105 2.33715C8.32027 2.26875 8.36276 2.20683 8.41606 2.15496C8.46937 2.10309 8.53243 2.06231 8.6016 2.03497C8.67077 2.00764 8.74468 1.99429 8.81904 1.99571C8.89341 1.99712 8.96675 2.01327 9.03483 2.04322C9.10291 2.07317 9.16438 2.11632 9.21567 2.17018L15.9657 9.10768C16.0678 9.21269 16.125 9.35342 16.125 9.49993C16.125 9.64644 16.0678 9.78717 15.9657 9.89218L9.21567 16.8297C9.16438 16.8835 9.10291 16.9267 9.03483 16.9566C8.96675 16.9866 8.89341 17.0027 8.81904 17.0042C8.74468 17.0056 8.67077 16.9922 8.6016 16.9649C8.53243 16.9376 8.46937 16.8968 8.41606 16.8449C8.36276 16.793 8.32027 16.7311 8.29105 16.6627C8.26184 16.5943 8.24647 16.5208 8.24586 16.4464C8.24524 16.3721 8.25938 16.2983 8.28745 16.2294C8.31553 16.1606 8.35698 16.0979 8.40942 16.0452L14.7784 9.49993Z" fill="#222222"/>
</svg>
