<svg width="41" height="39" viewBox="0 0 41 39" fill="none" xmlns="http://www.w3.org/2000/svg">
<path opacity="0.2" d="M40.8133 21.0497C40.8133 25.7838 38.9327 30.324 35.5851 33.6716C32.2376 37.0191 27.6974 38.8997 22.9633 38.8997C18.2292 38.8997 13.6889 37.0191 10.3414 33.6716C6.9939 30.324 5.11328 25.7838 5.11328 21.0497C5.11328 16.3156 6.9939 11.7754 10.3414 8.42785C13.6889 5.08033 18.2292 3.19971 22.9633 3.19971C27.6974 3.19971 32.2376 5.08033 35.5851 8.42785C38.9327 11.7754 40.8133 16.3156 40.8133 21.0497Z" fill="#333030"/>
<path fill-rule="evenodd" clip-rule="evenodd" d="M18.5004 33.7999C22.5582 33.7999 26.4498 32.1879 29.3191 29.3186C32.1884 26.4493 33.8004 22.5577 33.8004 18.4999C33.8004 14.4421 32.1884 10.5505 29.3191 7.68117C26.4498 4.81186 22.5582 3.1999 18.5004 3.1999C14.4426 3.1999 10.551 4.81186 7.68166 7.68117C4.81235 10.5505 3.20039 14.4421 3.20039 18.4999C3.20039 22.5577 4.81235 26.4493 7.68166 29.3186C10.551 32.1879 14.4426 33.7999 18.5004 33.7999ZM18.5004 36.3499C20.8445 36.3499 23.1656 35.8882 25.3313 34.9912C27.497 34.0941 29.4647 32.7793 31.1222 31.1218C32.7798 29.4642 34.0946 27.4965 34.9916 25.3308C35.8887 23.1651 36.3504 20.844 36.3504 18.4999C36.3504 16.1558 35.8887 13.8347 34.9916 11.669C34.0946 9.50334 32.7798 7.53557 31.1222 5.87805C29.4647 4.22052 27.497 2.9057 25.3313 2.00865C23.1656 1.11161 20.8445 0.649902 18.5004 0.649902C13.7663 0.649902 9.22606 2.53052 5.87853 5.87805C2.53101 9.22557 0.650391 13.7658 0.650391 18.4999C0.650391 23.234 2.53101 27.7742 5.87853 31.1218C9.22606 34.4693 13.7663 36.3499 18.5004 36.3499Z" fill="#333030"/>
<path fill-rule="evenodd" clip-rule="evenodd" d="M18.4996 9.57471C18.8378 9.57471 19.1621 9.70904 19.4012 9.94815C19.6403 10.1873 19.7746 10.5116 19.7746 10.8497V18.4997C19.7746 18.8379 19.6403 19.1622 19.4012 19.4013C19.1621 19.6404 18.8378 19.7747 18.4996 19.7747C18.1615 19.7747 17.8372 19.6404 17.598 19.4013C17.3589 19.1622 17.2246 18.8379 17.2246 18.4997V10.8497C17.2246 10.5116 17.3589 10.1873 17.598 9.94815C17.8372 9.70904 18.1615 9.57471 18.4996 9.57471Z" fill="#333030"/>
<path fill-rule="evenodd" clip-rule="evenodd" d="M27.4246 18.5001C27.4246 18.8382 27.2903 19.1626 27.0512 19.4017C26.8121 19.6408 26.4878 19.7751 26.1496 19.7751H18.4996C18.1615 19.7751 17.8372 19.6408 17.598 19.4017C17.3589 19.1626 17.2246 18.8382 17.2246 18.5001C17.2246 18.1619 17.3589 17.8376 17.598 17.5985C17.8372 17.3594 18.1615 17.2251 18.4996 17.2251H26.1496C26.4878 17.2251 26.8121 17.3594 27.0512 17.5985C27.2903 17.8376 27.4246 18.1619 27.4246 18.5001Z" fill="#333030"/>
</svg>
