<svg width="19" height="16" viewBox="0 0 19 16" fill="none" xmlns="http://www.w3.org/2000/svg">
<path d="M17.6198 8.00002H6.95312M17.6198 14.0953H6.95312M17.6198 1.90479H6.95312" stroke="black" stroke-width="1.14286" stroke-linecap="round" stroke-linejoin="round"/>
<path fill-rule="evenodd" clip-rule="evenodd" d="M2.37971 3.42848C3.14161 3.42848 3.90352 2.66657 3.90352 1.90467C3.90352 1.14276 3.14161 0.380859 2.37971 0.380859C1.6178 0.380859 0.857422 1.14276 0.857422 1.90467C0.857422 2.66657 1.6178 3.42848 2.37971 3.42848ZM2.37971 9.52372C3.14161 9.52372 3.90352 8.76181 3.90352 7.99991C3.90352 7.238 3.14161 6.4761 2.37971 6.4761C1.6178 6.4761 0.857422 7.238 0.857422 7.99991C0.857422 8.76181 1.6178 9.52372 2.37971 9.52372ZM2.37971 15.619C3.14161 15.619 3.90352 14.857 3.90352 14.0951C3.90352 13.3332 3.14161 12.5713 2.37971 12.5713C1.6178 12.5713 0.857422 13.3332 0.857422 14.0951C0.857422 14.857 1.6178 15.619 2.37971 15.619Z" fill="black"/>
</svg>
