<svg width="29" height="26" viewBox="0 0 29 26" fill="none" xmlns="http://www.w3.org/2000/svg">
<path d="M7.51467 21.4853C9.47793 23.4485 12.0612 24.6703 14.8244 24.9423C17.5875 25.2143 20.3595 24.5197 22.6679 22.977C24.9763 21.4342 26.6783 19.1387 27.4838 16.4816C28.2894 13.8245 28.1486 10.9703 27.0856 8.40544C26.0225 5.84052 24.1029 3.7236 21.6539 2.41544C19.2049 1.10727 16.3781 0.688805 13.6551 1.23136C10.9321 1.77391 8.48155 3.2439 6.72098 5.39083C4.96041 7.53776 3.99879 10.2288 4 13.0052V15.6666" stroke="black" stroke-linecap="round" stroke-linejoin="round"/>
<path d="M1.33398 13.0003L4.00065 15.667L6.66732 13.0003M14.6673 7.66699V14.3337H21.334" stroke="black" stroke-linecap="round" stroke-linejoin="round"/>
</svg>
