<svg width="41" height="39" viewBox="0 0 41 39" fill="none" xmlns="http://www.w3.org/2000/svg">
<path opacity="0.2" d="M40.8133 21.0512C40.8133 25.7853 38.9327 30.3255 35.5851 33.673C32.2376 37.0205 27.6974 38.9012 22.9633 38.9012C18.2292 38.9012 13.6889 37.0205 10.3414 33.673C6.9939 30.3255 5.11328 25.7853 5.11328 21.0512C5.11328 16.3171 6.9939 11.7768 10.3414 8.42932C13.6889 5.08179 18.2292 3.20117 22.9633 3.20117C27.6974 3.20117 32.2376 5.08179 35.5851 8.42932C38.9327 11.7768 40.8133 16.3171 40.8133 21.0512Z" fill="#44C339"/>
<path fill-rule="evenodd" clip-rule="evenodd" d="M18.5004 33.8004C22.5582 33.8004 26.4498 32.1884 29.3191 29.3191C32.1884 26.4498 33.8004 22.5582 33.8004 18.5004C33.8004 14.4426 32.1884 10.551 29.3191 7.68166C26.4498 4.81235 22.5582 3.20039 18.5004 3.20039C14.4426 3.20039 10.551 4.81235 7.68166 7.68166C4.81235 10.551 3.20039 14.4426 3.20039 18.5004C3.20039 22.5582 4.81235 26.4498 7.68166 29.3191C10.551 32.1884 14.4426 33.8004 18.5004 33.8004ZM18.5004 36.3504C20.8445 36.3504 23.1656 35.8887 25.3313 34.9916C27.497 34.0946 29.4647 32.7798 31.1222 31.1222C32.7798 29.4647 34.0946 27.497 34.9916 25.3313C35.8887 23.1656 36.3504 20.8445 36.3504 18.5004C36.3504 16.1563 35.8887 13.8352 34.9916 11.6695C34.0946 9.50383 32.7798 7.53606 31.1222 5.87853C29.4647 4.22101 27.497 2.90619 25.3313 2.00914C23.1656 1.11209 20.8445 0.650391 18.5004 0.650391C13.7663 0.650391 9.22606 2.53101 5.87853 5.87853C2.53101 9.22606 0.650391 13.7663 0.650391 18.5004C0.650391 23.2345 2.53101 27.7747 5.87853 31.1222C9.22606 34.4698 13.7663 36.3504 18.5004 36.3504Z" fill="#44C339"/>
<path fill-rule="evenodd" clip-rule="evenodd" d="M18.4996 9.57617C18.8378 9.57617 19.1621 9.7105 19.4012 9.94961C19.6403 10.1887 19.7746 10.513 19.7746 10.8512V18.5012C19.7746 18.8393 19.6403 19.1636 19.4012 19.4027C19.1621 19.6418 18.8378 19.7762 18.4996 19.7762C18.1615 19.7762 17.8372 19.6418 17.598 19.4027C17.3589 19.1636 17.2246 18.8393 17.2246 18.5012V10.8512C17.2246 10.513 17.3589 10.1887 17.598 9.94961C17.8372 9.7105 18.1615 9.57617 18.4996 9.57617Z" fill="#44C339"/>
<path fill-rule="evenodd" clip-rule="evenodd" d="M27.4246 18.4996C27.4246 18.8378 27.2903 19.1621 27.0512 19.4012C26.8121 19.6403 26.4878 19.7746 26.1496 19.7746H18.4996C18.1615 19.7746 17.8372 19.6403 17.598 19.4012C17.3589 19.1621 17.2246 18.8378 17.2246 18.4996C17.2246 18.1615 17.3589 17.8372 17.598 17.598C17.8372 17.3589 18.1615 17.2246 18.4996 17.2246H26.1496C26.4878 17.2246 26.8121 17.3589 27.0512 17.598C27.2903 17.8372 27.4246 18.1615 27.4246 18.4996Z" fill="#44C339"/>
</svg>
