<svg width="41" height="41" viewBox="0 0 41 41" fill="none" xmlns="http://www.w3.org/2000/svg">
<path d="M20.8717 5.1084C24.5413 5.1084 27.5135 8.08064 27.5135 11.7503C27.5135 15.4199 24.5413 18.3922 20.8717 18.3922C17.202 18.3922 14.2298 15.4199 14.2298 11.7503C14.2298 8.08064 17.202 5.1084 20.8717 5.1084ZM27.5135 22.6098C27.5135 24.3699 27.0486 28.4712 23.8771 33.0541L22.5321 25.034L24.093 21.9124C23.0635 21.7961 21.9842 21.7131 20.8717 21.7131C19.7591 21.7131 18.6798 21.7961 17.6503 21.9124L19.2112 25.034L17.8662 33.0541C14.6947 28.4712 14.2298 24.3699 14.2298 22.6098C10.2612 23.7721 7.58789 25.8643 7.58789 28.355V34.9969H34.1554V28.355C34.1554 25.8643 31.4987 23.7721 27.5135 22.6098Z" fill="#0174B1"/>
</svg>
