<svg width="32" height="32" viewBox="0 0 32 32" fill="none" xmlns="http://www.w3.org/2000/svg">
<g clip-path="url(#clip0_692_13503)">
<path d="M15.8696 7.28613C17.0738 7.28613 18.2287 7.76449 19.0802 8.61597C19.9316 9.46745 20.41 10.6223 20.41 11.8265C20.41 13.0307 19.9316 14.1855 19.0802 15.037C18.2287 15.8885 17.0738 16.3668 15.8696 16.3668C14.6655 16.3668 13.5106 15.8885 12.6591 15.037C11.8077 14.1855 11.3293 13.0307 11.3293 11.8265C11.3293 10.6223 11.8077 9.46745 12.6591 8.61597C13.5106 7.76449 14.6655 7.28613 15.8696 7.28613ZM6.78895 10.5292C7.5154 10.5292 8.18997 10.7238 8.77373 11.0741C8.57914 12.9291 9.12399 14.7712 10.2396 16.2112C9.59099 17.4565 8.29375 18.3127 6.78895 18.3127C5.7568 18.3127 4.76692 17.9027 4.03708 17.1728C3.30724 16.443 2.89722 15.4531 2.89722 14.421C2.89722 13.3888 3.30724 12.3989 4.03708 11.6691C4.76692 10.9393 5.7568 10.5292 6.78895 10.5292ZM24.9503 10.5292C25.9825 10.5292 26.9724 10.9393 27.7022 11.6691C28.4321 12.3989 28.8421 13.3888 28.8421 14.421C28.8421 15.4531 28.4321 16.443 27.7022 17.1728C26.9724 17.9027 25.9825 18.3127 24.9503 18.3127C23.4455 18.3127 22.1483 17.4565 21.4997 16.2112C22.6307 14.751 23.1557 12.9112 22.9656 11.0741C23.5493 10.7238 24.2239 10.5292 24.9503 10.5292ZM7.43757 23.826C7.43757 21.1407 11.2125 18.9613 15.8696 18.9613C20.5268 18.9613 24.3017 21.1407 24.3017 23.826V26.0962H7.43757V23.826ZM0.302734 26.0962V24.1503C0.302734 22.3471 2.75452 20.8293 6.07546 20.3883C5.31009 21.2704 4.84308 22.4898 4.84308 23.826V26.0962H0.302734ZM31.4366 26.0962H26.8962V23.826C26.8962 22.4898 26.4292 21.2704 25.6638 20.3883C28.9848 20.8293 31.4366 22.3471 31.4366 24.1503V26.0962Z" fill="white"/>
</g>
<defs>
<clipPath id="clip0_692_13503">
<rect width="31.1338" height="31.1338" fill="white" transform="translate(0.302734 0.560059)"/>
</clipPath>
</defs>
</svg>
