<svg width="28" height="30" viewBox="0 0 28 30" fill="none" xmlns="http://www.w3.org/2000/svg">
<path d="M13.8717 0.108398C17.5413 0.108398 20.5135 3.08064 20.5135 6.75028C20.5135 10.4199 17.5413 13.3922 13.8717 13.3922C10.202 13.3922 7.22977 10.4199 7.22977 6.75028C7.22977 3.08064 10.202 0.108398 13.8717 0.108398ZM20.5135 17.6098C20.5135 19.3699 20.0486 23.4712 16.8771 28.0541L15.5321 20.034L17.093 16.9124C16.0635 16.7961 14.9842 16.7131 13.8717 16.7131C12.7591 16.7131 11.6798 16.7961 10.6503 16.9124L12.2112 20.034L10.8662 28.0541C7.69471 23.4712 7.22977 19.3699 7.22977 17.6098C3.26125 18.7721 0.587891 20.8643 0.587891 23.355V29.9969H27.1554V23.355C27.1554 20.8643 24.4987 18.7721 20.5135 17.6098Z" fill="#E3F8FF"/>
</svg>
