<svg width="51" height="51" viewBox="0 0 51 51" fill="none" xmlns="http://www.w3.org/2000/svg">
<path opacity="0.2" d="M47.8133 28.0497C47.8133 32.7838 45.9327 37.324 42.5851 40.6716C39.2376 44.0191 34.6974 45.8997 29.9633 45.8997C25.2292 45.8997 20.6889 44.0191 17.3414 40.6716C13.9939 37.324 12.1133 32.7838 12.1133 28.0497C12.1133 23.3156 13.9939 18.7754 17.3414 15.4279C20.6889 12.0803 25.2292 10.1997 29.9633 10.1997C34.6974 10.1997 39.2376 12.0803 42.5851 15.4279C45.9327 18.7754 47.8133 23.3156 47.8133 28.0497Z" fill="#E75151" fill-opacity="0.82"/>
<path fill-rule="evenodd" clip-rule="evenodd" d="M25.5004 40.7999C29.5582 40.7999 33.4498 39.1879 36.3191 36.3186C39.1884 33.4493 40.8004 29.5577 40.8004 25.4999C40.8004 21.4421 39.1884 17.5505 36.3191 14.6812C33.4498 11.8119 29.5582 10.1999 25.5004 10.1999C21.4426 10.1999 17.551 11.8119 14.6817 14.6812C11.8124 17.5505 10.2004 21.4421 10.2004 25.4999C10.2004 29.5577 11.8124 33.4493 14.6817 36.3186C17.551 39.1879 21.4426 40.7999 25.5004 40.7999ZM25.5004 43.3499C27.8445 43.3499 30.1656 42.8882 32.3313 41.9912C34.497 41.0941 36.4647 39.7793 38.1222 38.1218C39.7798 36.4642 41.0946 34.4965 41.9916 32.3308C42.8887 30.1651 43.3504 27.844 43.3504 25.4999C43.3504 23.1558 42.8887 20.8347 41.9916 18.669C41.0946 16.5033 39.7798 14.5356 38.1222 12.878C36.4647 11.2205 34.497 9.9057 32.3313 9.00865C30.1656 8.11161 27.8445 7.6499 25.5004 7.6499C20.7663 7.6499 16.2261 9.53052 12.8785 12.878C9.53101 16.2256 7.65039 20.7658 7.65039 25.4999C7.65039 30.234 9.53101 34.7742 12.8785 38.1218C16.2261 41.4693 20.7663 43.3499 25.5004 43.3499Z" fill="#E75151" fill-opacity="0.82"/>
<path fill-rule="evenodd" clip-rule="evenodd" d="M25.4996 16.5747C25.8378 16.5747 26.1621 16.709 26.4012 16.9481C26.6403 17.1873 26.7746 17.5116 26.7746 17.8497V25.4997C26.7746 25.8379 26.6403 26.1622 26.4012 26.4013C26.1621 26.6404 25.8378 26.7747 25.4996 26.7747C25.1615 26.7747 24.8372 26.6404 24.598 26.4013C24.3589 26.1622 24.2246 25.8379 24.2246 25.4997V17.8497C24.2246 17.5116 24.3589 17.1873 24.598 16.9481C24.8372 16.709 25.1615 16.5747 25.4996 16.5747Z" fill="#E75151" fill-opacity="0.82"/>
<path fill-rule="evenodd" clip-rule="evenodd" d="M34.4246 25.5001C34.4246 25.8382 34.2903 26.1626 34.0512 26.4017C33.8121 26.6408 33.4878 26.7751 33.1496 26.7751H25.4996C25.1615 26.7751 24.8372 26.6408 24.598 26.4017C24.3589 26.1626 24.2246 25.8382 24.2246 25.5001C24.2246 25.1619 24.3589 24.8376 24.598 24.5985C24.8372 24.3594 25.1615 24.2251 25.4996 24.2251H33.1496C33.4878 24.2251 33.8121 24.3594 34.0512 24.5985C34.2903 24.8376 34.4246 25.1619 34.4246 25.5001Z" fill="#E75151" fill-opacity="0.82"/>
</svg>
