<svg width="33" height="32" viewBox="0 0 33 32" fill="none" xmlns="http://www.w3.org/2000/svg">
<path d="M24.8014 22.3332H22.1348C21.8695 22.3332 21.6152 22.2278 21.4277 22.0403C21.2401 21.8527 21.1348 21.5984 21.1348 21.3332C21.1348 21.068 21.2401 20.8136 21.4277 20.6261C21.6152 20.4385 21.8695 20.3332 22.1348 20.3332H24.8014C25.2435 20.3332 25.6674 20.1576 25.9799 19.845C26.2925 19.5325 26.4681 19.1085 26.4681 18.6665V13.3332C26.4681 12.8911 26.2925 12.4672 25.9799 12.1547C25.6674 11.8421 25.2435 11.6665 24.8014 11.6665H8.80143C8.3594 11.6665 7.93548 11.8421 7.62292 12.1547C7.31036 12.4672 7.13477 12.8911 7.13477 13.3332V18.6665C7.13477 19.1085 7.31036 19.5325 7.62292 19.845C7.93548 20.1576 8.3594 20.3332 8.80143 20.3332H11.4681C11.7333 20.3332 11.9877 20.4385 12.1752 20.6261C12.3627 20.8136 12.4681 21.068 12.4681 21.3332C12.4681 21.5984 12.3627 21.8527 12.1752 22.0403C11.9877 22.2278 11.7333 22.3332 11.4681 22.3332H8.80143C7.82897 22.3332 6.89634 21.9469 6.20871 21.2592C5.52107 20.5716 5.13477 19.639 5.13477 18.6665V13.3332C5.13477 12.3607 5.52107 11.4281 6.20871 10.7404C6.89634 10.0528 7.82897 9.6665 8.80143 9.6665H24.8014C25.7739 9.6665 26.7065 10.0528 27.3942 10.7404C28.0818 11.4281 28.4681 12.3607 28.4681 13.3332V18.6665C28.4681 19.639 28.0818 20.5716 27.3942 21.2592C26.7065 21.9469 25.7739 22.3332 24.8014 22.3332Z" fill="white"/>
<path d="M22.1335 11.6668C21.8693 11.6634 21.617 11.5569 21.4302 11.3701C21.2434 11.1833 21.1369 10.931 21.1335 10.6668V6.3335H12.4668V10.6668C12.4668 10.932 12.3614 11.1864 12.1739 11.3739C11.9864 11.5615 11.732 11.6668 11.4668 11.6668C11.2016 11.6668 10.9472 11.5615 10.7597 11.3739C10.5722 11.1864 10.4668 10.932 10.4668 10.6668V6.00016C10.4668 5.55814 10.6424 5.13421 10.955 4.82165C11.2675 4.50909 11.6914 4.3335 12.1335 4.3335H21.4668C21.9088 4.3335 22.3327 4.50909 22.6453 4.82165C22.9579 5.13421 23.1335 5.55814 23.1335 6.00016V10.6668C23.13 10.931 23.0235 11.1833 22.8368 11.3701C22.65 11.5569 22.3976 11.6634 22.1335 11.6668ZM21.4668 27.6668H12.1335C11.6914 27.6668 11.2675 27.4912 10.955 27.1787C10.6424 26.8661 10.4668 26.4422 10.4668 26.0002V16.6668C10.4668 16.2248 10.6424 15.8009 10.955 15.4883C11.2675 15.1758 11.6914 15.0002 12.1335 15.0002H21.4668C21.9088 15.0002 22.3327 15.1758 22.6453 15.4883C22.9579 15.8009 23.1335 16.2248 23.1335 16.6668V26.0002C23.1335 26.4422 22.9579 26.8661 22.6453 27.1787C22.3327 27.4912 21.9088 27.6668 21.4668 27.6668ZM12.4668 25.6668H21.1335V17.0002H12.4668V25.6668Z" fill="white"/>
</svg>
