<svg width="24" height="24" viewBox="0 0 24 24" fill="none" xmlns="http://www.w3.org/2000/svg">
<path d="M7.25 8C7.25 7.80109 7.32902 7.61032 7.46967 7.46967C7.61032 7.32902 7.80109 7.25 8 7.25H16C16.1989 7.25 16.3897 7.32902 16.5303 7.46967C16.671 7.61032 16.75 7.80109 16.75 8C16.75 8.19891 16.671 8.38968 16.5303 8.53033C16.3897 8.67098 16.1989 8.75 16 8.75H8C7.80109 8.75 7.61032 8.67098 7.46967 8.53033C7.32902 8.38968 7.25 8.19891 7.25 8ZM8 12.75H16C16.1989 12.75 16.3897 12.671 16.5303 12.5303C16.671 12.3897 16.75 12.1989 16.75 12C16.75 11.8011 16.671 11.6103 16.5303 11.4697C16.3897 11.329 16.1989 11.25 16 11.25H8C7.80109 11.25 7.61032 11.329 7.46967 11.4697C7.32902 11.6103 7.25 11.8011 7.25 12C7.25 12.1989 7.32902 12.3897 7.46967 12.5303C7.61032 12.671 7.80109 12.75 8 12.75ZM12 15.25H8C7.80109 15.25 7.61032 15.329 7.46967 15.4697C7.32902 15.6103 7.25 15.8011 7.25 16C7.25 16.1989 7.32902 16.3897 7.46967 16.5303C7.61032 16.671 7.80109 16.75 8 16.75H12C12.1989 16.75 12.3897 16.671 12.5303 16.5303C12.671 16.3897 12.75 16.1989 12.75 16C12.75 15.8011 12.671 15.6103 12.5303 15.4697C12.3897 15.329 12.1989 15.25 12 15.25ZM23.75 2V15.5863C23.7504 15.8161 23.7054 16.0438 23.6174 16.2562C23.5294 16.4686 23.4003 16.6615 23.2375 16.8238L16.8238 23.2375C16.6615 23.4003 16.4686 23.5294 16.2562 23.6174C16.0438 23.7054 15.8161 23.7504 15.5863 23.75H2C1.53587 23.75 1.09075 23.5656 0.762563 23.2374C0.434375 22.9093 0.25 22.4641 0.25 22V2C0.25 1.53587 0.434375 1.09075 0.762563 0.762563C1.09075 0.434375 1.53587 0.25 2 0.25H22C22.4641 0.25 22.9093 0.434375 23.2374 0.762563C23.5656 1.09075 23.75 1.53587 23.75 2ZM2 22.25H15.25V16C15.25 15.8011 15.329 15.6103 15.4697 15.4697C15.6103 15.329 15.8011 15.25 16 15.25H22.25V2C22.25 1.9337 22.2237 1.87011 22.1768 1.82322C22.1299 1.77634 22.0663 1.75 22 1.75H2C1.9337 1.75 1.87011 1.77634 1.82322 1.82322C1.77634 1.87011 1.75 1.9337 1.75 2V22C1.75 22.0663 1.77634 22.1299 1.82322 22.1768C1.87011 22.2237 1.9337 22.25 2 22.25ZM21.19 16.75H16.75V21.19L21.19 16.75Z" fill="black"/>
</svg>
