<svg width="22" height="29" viewBox="0 0 22 29" fill="none" xmlns="http://www.w3.org/2000/svg">
<path fill-rule="evenodd" clip-rule="evenodd" d="M7.68812 0.900879C4.71575 0.900879 2.30617 3.31046 2.30617 6.28283V11.6636C0.998358 12.6454 0.152344 14.2091 0.152344 15.9703V18.1231C0.152344 21.0955 2.56192 23.5051 5.53429 23.5051H9.3006V26.7345C9.3006 27.6262 10.0235 28.3491 10.9152 28.3491C11.8069 28.3491 12.5298 27.6262 12.5298 26.7345V23.5051H16.2982C19.2705 23.5051 21.6801 21.0955 21.6801 18.1231V15.9703C21.6801 14.9038 21.3665 13.9006 20.8254 13.0597C20.5636 12.6527 20.2742 12.2893 20.0717 12.0376L19.9472 11.8831L19.9471 11.883C19.7845 11.6816 19.677 11.5484 19.5748 11.4078C19.5574 11.3838 19.542 11.3621 19.5284 11.3424V6.28282C19.5284 3.31046 17.1188 0.900879 14.1465 0.900879H7.68812ZM19.4391 11.1994C19.4392 11.1995 19.441 11.2027 19.4438 11.209C19.4404 11.2025 19.4389 11.1994 19.4391 11.1994ZM7.68812 4.13005C6.49917 4.13005 5.53534 5.09388 5.53534 6.28283V13.8165C5.53534 13.8171 5.53487 13.8175 5.53429 13.8175C4.34534 13.8175 3.38151 14.7814 3.38151 15.9703V18.1231C3.38151 19.312 4.34534 20.2759 5.53429 20.2759H16.2982C17.4871 20.2759 18.451 19.3121 18.451 18.1231V15.9703C18.451 15.5418 18.3257 15.1425 18.1099 14.807C17.9216 14.5145 17.6885 14.2259 17.4528 13.9342L17.4528 13.9342C16.8833 13.2294 16.2992 12.5065 16.2992 11.6658V6.28282C16.2992 5.09388 15.3354 4.13005 14.1465 4.13005H7.68812Z" fill="#627D98"/>
</svg>
