<svg width="26" height="24" viewBox="0 0 26 24" fill="none" xmlns="http://www.w3.org/2000/svg">
<path d="M24 0.25H2.00003C1.5359 0.25 1.09078 0.434375 0.762589 0.762563C0.4344 1.09075 0.250025 1.53587 0.250025 2V22C0.248217 22.3336 0.34265 22.6607 0.522007 22.9421C0.701365 23.2234 0.95804 23.4471 1.26128 23.5863C1.49278 23.6936 1.74483 23.7495 2.00003 23.75C2.41229 23.7502 2.81115 23.6035 3.12503 23.3363L3.13628 23.3263L7.15378 19.805C7.19876 19.7689 7.25485 19.7495 7.31253 19.75H24C24.4642 19.75 24.9093 19.5656 25.2375 19.2374C25.5656 18.9092 25.75 18.4641 25.75 18V2C25.75 1.53587 25.5656 1.09075 25.2375 0.762563C24.9093 0.434375 24.4642 0.25 24 0.25ZM24.25 18C24.25 18.0663 24.2237 18.1299 24.1768 18.1768C24.1299 18.2237 24.0663 18.25 24 18.25H7.31253C6.90083 18.2505 6.50248 18.3961 6.18753 18.6612L6.17628 18.6712L2.15628 22.1925C2.11968 22.2218 2.07559 22.2402 2.02903 22.2457C1.98247 22.2511 1.93532 22.2433 1.89296 22.2233C1.8506 22.2032 1.81473 22.1716 1.78946 22.1321C1.76419 22.0927 1.75052 22.0469 1.75003 22V2C1.75003 1.9337 1.77636 1.87011 1.82325 1.82322C1.87013 1.77634 1.93372 1.75 2.00003 1.75H24C24.0663 1.75 24.1299 1.77634 24.1768 1.82322C24.2237 1.87011 24.25 1.9337 24.25 2V18Z" fill="black"/>
</svg>
