<svg width="17" height="20" viewBox="0 0 17 20" fill="none" xmlns="http://www.w3.org/2000/svg">
<path d="M8.49961 0.400391C7.22657 0.400391 6.00567 0.906104 5.1055 1.80628C4.20532 2.70645 3.69961 3.92735 3.69961 5.20039C3.69961 6.47343 4.20532 7.69433 5.1055 8.5945C6.00567 9.49468 7.22657 10.0004 8.49961 10.0004C9.77265 10.0004 10.9935 9.49468 11.8937 8.5945C12.7939 7.69433 13.2996 6.47343 13.2996 5.20039C13.2996 3.92735 12.7939 2.70645 11.8937 1.80628C10.9935 0.906104 9.77265 0.400391 8.49961 0.400391ZM4.89961 5.20039C4.89961 4.24561 5.27889 3.32994 5.95403 2.65481C6.62916 1.97968 7.54483 1.60039 8.49961 1.60039C9.45439 1.60039 10.3701 1.97968 11.0452 2.65481C11.7203 3.32994 12.0996 4.24561 12.0996 5.20039C12.0996 6.15517 11.7203 7.07084 11.0452 7.74598C10.3701 8.42111 9.45439 8.80039 8.49961 8.80039C7.54483 8.80039 6.62916 8.42111 5.95403 7.74598C5.27889 7.07084 4.89961 6.15517 4.89961 5.20039ZM2.51041 11.2004C2.19437 11.1991 1.8812 11.2603 1.58884 11.3803C1.29648 11.5003 1.03069 11.6769 0.80672 11.8999C0.582746 12.1228 0.404991 12.3878 0.283649 12.6796C0.162307 12.9715 0.0997648 13.2844 0.0996094 13.6004C0.0996094 15.6296 1.09921 17.1596 2.66161 18.1568C4.20001 19.1372 6.27361 19.6004 8.49961 19.6004C10.7256 19.6004 12.7992 19.1372 14.3376 18.1568C15.9 17.1608 16.8996 15.6284 16.8996 13.6004C16.8996 12.9639 16.6468 12.3534 16.1967 11.9033C15.7466 11.4532 15.1361 11.2004 14.4996 11.2004H2.51041ZM1.29961 13.6004C1.29961 12.9368 1.83721 12.4004 2.51041 12.4004H14.4996C14.8179 12.4004 15.1231 12.5268 15.3481 12.7519C15.5732 12.9769 15.6996 13.2821 15.6996 13.6004C15.6996 15.1712 14.9532 16.3412 13.692 17.144C12.408 17.9636 10.5816 18.4004 8.49961 18.4004C6.41761 18.4004 4.59121 17.9636 3.30721 17.144C2.04721 16.34 1.29961 15.1724 1.29961 13.6004Z" fill="black"/>
</svg>
